# xmcd CD database file
#
# Track frame offsets:
#	150
#	21625
#	48210
#	69895
#	93275
#	112210
#	122740
#	147985
#	153342
#	164090
#	171947
#	177580
#	191312
#	198410
#	225125
#
# Disc length: 3131 seconds
#
# Revision: 0
# Processed by: cddbd v1.5.1PL2 Copyright (c) Steve Scherf et al.
# Submitted via: CDex 1.51
#
DISCID=cd0c390f
DTITLE=斉藤康仁 - PSYCHIC DETECTIVE SERIES THE BEST
DYEAR=1991
DGENRE=Game
TTITLE0=01 PHOTOGRAPH <CLUB MIX>
TTITLE1=02 AUTUMN <CLUB MIX>
TTITLE2=03 OPPOSITE LOVE <CLUB MIX>
TTITLE3=04 JAPANESQUE #3
TTITLE4=05 IGNITER
TTITLE5=06 D.N.A. <REMIX>
TTITLE6=07 JAPANESQUE #1 <REMIX>
TTITLE7=08 FEEL TIRED <REMIX>
TTITLE8=09 ROSE MARY
TTITLE9=10 SAND STORM
TTITLE10=11 A FEAR <REMIX>
TTITLE11=12 SHADOW
TTITLE12=13 ALONE
TTITLE13=14 INVITATION
TTITLE14=15 YOU・ME
EXTD=YEAR: 1991
EXTT0=
EXTT1=
EXTT2=
EXTT3=
EXTT4=
EXTT5=
EXTT6=
EXTT7=
EXTT8=
EXTT9=
EXTT10=
EXTT11=
EXTT12=
EXTT13=
EXTT14=
PLAYORDER=
